<?xml version="1.0" standalone="no"?><!DOCTYPE svg PUBLIC "-//W3C//DTD SVG 1.1//EN" "http://www.w3.org/Graphics/SVG/1.1/DTD/svg11.dtd"><svg t="1572269326718" class="icon" viewBox="0 0 1024 1024" version="1.1" xmlns="http://www.w3.org/2000/svg" p-id="5832" xmlns:xlink="http://www.w3.org/1999/xlink" width="32" height="32"><defs><style type="text/css"></style></defs><path d="M808.602 326.81H648.858v-92.16a92.16 92.16 0 0 0-92.16-92.16h-332.8a92.16 92.16 0 0 0-92.16 92.16v655.36a30.72 30.72 0 0 0 30.72 30.72h707.584a30.72 30.72 0 0 0 30.72-30.72V418.97a92.16 92.16 0 0 0-92.16-92.16zM361.318 855.04v-76.288a29.03 29.03 0 0 1 58.01 0v76.288z m226.1 4.25h-106.65v-80.538a90.47 90.47 0 0 0-180.89 0v80.538h-106.7V234.65a30.72 30.72 0 0 1 30.72-30.72h332.8a30.72 30.72 0 0 1 30.72 30.72z m251.904 0H652.8V388.25h155.802a30.72 30.72 0 0 1 30.72 30.72z" p-id="5833" fill="#8a8a8a"></path><path d="M510.618 300.39h-240.64a30.72 30.72 0 0 0 0 61.44h240.64a30.72 30.72 0 0 0 0-61.44z m0 126.055h-240.64a30.72 30.72 0 0 0 0 61.44h240.64a30.72 30.72 0 0 0 0-61.44z m230.297 13.107a30.72 30.72 0 0 0-30.72 30.72v87.808a30.72 30.72 0 1 0 61.44 0v-87.808a30.72 30.72 0 0 0-30.72-30.72z m0 204.8a30.72 30.72 0 0 0-30.72 30.72v87.808a30.72 30.72 0 0 0 61.44 0v-87.808a30.72 30.72 0 0 0-30.72-30.72zM510.618 552.55h-240.64a30.72 30.72 0 0 0 0 61.44h240.64a30.72 30.72 0 0 0 0-61.44z" p-id="5834" fill="#8a8a8a"></path></svg>