<?xml version="1.0" standalone="no"?><!DOCTYPE svg PUBLIC "-//W3C//DTD SVG 1.1//EN" "http://www.w3.org/Graphics/SVG/1.1/DTD/svg11.dtd"><svg t="1572269435877" class="icon" viewBox="0 0 1024 1024" version="1.1" xmlns="http://www.w3.org/2000/svg" p-id="8422" xmlns:xlink="http://www.w3.org/1999/xlink" width="32" height="32"><defs><style type="text/css"></style></defs><path d="M525.42464 797.59872H336.78848c-15.5136 0-28.09344 10.71616-28.09344 23.936s12.57472 23.92576 28.09344 23.92576h188.62592c15.51872 0 28.09856-10.70592 28.09856-23.92576s-12.57472-23.936-28.08832-23.936zM336.78848 624.40448h356.29056c15.51872 0 28.09856-10.63424 28.09856-23.7568 0-13.11232-12.57984-23.74656-28.09856-23.74656H336.78848c-15.5136 0-28.09344 10.63424-28.09344 23.74656 0 13.12256 12.57984 23.7568 28.09344 23.7568zM336.78848 734.83776h305.7152c15.51872 0 28.10368-10.63424 28.10368-23.75168s-12.57472-23.74656-28.10368-23.74656h-305.7152c-15.5136 0-28.09344 10.62912-28.09344 23.74656s12.57984 23.75168 28.09344 23.75168z" p-id="8423" fill="#8a8a8a"></path><path d="M839.78752 63.8464H190.09024c-50.16576 0-90.97216 40.81152-90.97216 90.97216v715.49952c0 50.16576 40.8064 90.97216 90.97216 90.97216h513.46944a28.0832 28.0832 0 0 0 20.00384-8.36096l199.09632-201.71264a28.06784 28.06784 0 0 0 8.09984-19.7376V154.81856c0-50.16064-40.8064-90.97216-90.97216-90.97216z m-122.22464 835.5328v-103.29088c0-28.11392 22.87616-50.9952 50.9952-50.9952h101.27872l-152.27392 154.28608z m167.12192-196.05504h-118.24128c-50.15552 0-90.97728 40.81152-90.97728 90.96704v125.98272h-485.376c-19.17952 0-49.95072-30.7712-49.95072-49.95584V154.81856c0-19.18464 30.77632-49.95072 49.95072-49.95072h649.70752c19.16928 0 44.89216 30.7712 44.89216 49.95072l-0.00512 548.5056z" p-id="8424" fill="#8a8a8a"></path><path d="M717.27104 493.5936c-9.32864-46.03392-34.51904-87.96672-70.93248-118.07744a206.20288 206.20288 0 0 0-48.49664-29.8496 108.79488 108.79488 0 0 0 26.34752-71.08096c0-60.24192-49.00864-109.24544-109.24544-109.24544-60.24192 0-109.24544 49.00352-109.24544 109.24544a108.79488 108.79488 0 0 0 26.24512 70.95808 205.78816 205.78816 0 0 0-47.95904 29.2864C347.74016 404.48 322.41152 445.88032 312.6784 491.40224a28.08832 28.08832 0 0 0 21.59104 33.35168 28.03712 28.03712 0 0 0 13.056-0.32768c5.97504-86.02624 77.60896-153.97376 165.15072-153.97376 87.552 0 159.17568 67.94752 165.15072 153.97888a27.8016 27.8016 0 0 0 12.07296 2.84672 28.11392 28.11392 0 0 0 27.5712-33.68448zM514.93888 339.4048c-38.528 0-69.87776-31.34976-69.87776-69.87776 0-38.528 31.34976-69.86752 69.87776-69.86752 38.528 0 69.86752 31.33952 69.86752 69.86752 0.00512 38.528-31.3344 69.87776-69.86752 69.87776z" p-id="8425" fill="#8a8a8a"></path></svg>