<?xml version="1.0" standalone="no"?><!DOCTYPE svg PUBLIC "-//W3C//DTD SVG 1.1//EN" "http://www.w3.org/Graphics/SVG/1.1/DTD/svg11.dtd"><svg t="1572269084550" class="icon" viewBox="0 0 1024 1024" version="1.1" xmlns="http://www.w3.org/2000/svg" p-id="2160" xmlns:xlink="http://www.w3.org/1999/xlink" width="32" height="32"><defs><style type="text/css"></style></defs><path d="M384.085226 751.546348a24.036327 24.036327 0 0 1 24.036327 23.910482v1.761825a23.784638 23.784638 0 0 1-24.036327 23.784637H176.693254a24.036327 24.036327 0 0 1-24.036327-23.784637v-1.761825a23.910482 23.910482 0 0 1 24.036327-23.910482zM397.298913 554.599481A24.036327 24.036327 0 0 1 421.33524 578.887497v1.761825A23.910482 23.910482 0 0 1 397.298913 604.056426H189.906942a24.036327 24.036327 0 0 1-24.036327-23.910482V578.887497a23.784638 23.784638 0 0 1 24.036327-23.784637zM639.172317 357.652615a23.910482 23.910482 0 0 1 24.036327 23.784637v1.761825a23.910482 23.910482 0 0 1-24.036327 23.910483H187.515893a24.036327 24.036327 0 0 1-24.036326-23.910483v-1.761825A23.910482 23.910482 0 0 1 187.515893 357.652615zM591.099664 908.977996a9.564193 9.564193 0 0 1-2.768582-1.384291l0.755067 1.88767h2.013515z" p-id="2161" fill="#1296db"></path><path d="M720.467957 489.915335a267.042333 267.042333 0 1 0 267.042332 267.042332 267.042333 267.042333 0 0 0-267.042332-267.042332z m130.752584 224.129309L697.564232 868.330177a21.393589 21.393589 0 0 1-9.438348 5.285475A20.386832 20.386832 0 0 1 666.983984 868.330177l-80.792261-80.918106a19.883454 19.883454 0 0 1 28.063355-28.063355l67.704418 67.704418L823.157186 685.855444a19.883454 19.883454 0 0 1 28.063355 28.1892zM284.038735 198.207452h32.971296a33.097141 33.097141 0 0 0 33.097141-33.097141V33.09928A33.097141 33.097141 0 0 0 317.010031 0.002139h-32.971296A33.222986 33.222986 0 0 0 250.438215 33.09928v132.011031a33.097141 33.097141 0 0 0 33.097141 33.097141zM647.352219 198.207452h33.097141a32.971296 32.971296 0 0 0 32.971297-33.097141V33.09928A32.971296 32.971296 0 0 0 680.44936 0.002139h-33.097141a32.971296 32.971296 0 0 0-32.971296 33.097141v132.011031a32.971296 32.971296 0 0 0 32.971296 33.097141z" p-id="2162" fill="#1296db"></path><path d="M253.710176 52.479356v49.834478l90.230609 0.251689V52.479356h-90.230609zM618.030417 52.479356v50.841235l90.356454 0.125845V52.479356h-90.356454zM98.166197 52.479356a58.391914 58.391914 0 0 0-43.416402 18.499162A61.663875 61.663875 0 0 0 36.502322 115.905056v809.432744a60.279584 60.279584 0 0 0 18.121628 44.423159A59.021138 59.021138 0 0 0 98.166197 987.882587h264.27375a24.162171 24.162171 0 0 0 24.036327-24.036326 24.288016 24.288016 0 0 0-24.036327-24.162172L86.840179 937.293041V101.810456h103.192607a25.168929 25.168929 0 0 0 25.168929-25.168929 25.168929 25.168929 0 0 0-25.168929-25.168929zM903.697757 70.852673a56.755934 56.755934 0 0 0-42.787179-18.373317h-88.09125a25.168929 25.168929 0 0 0-25.168928 25.168928 25.168929 25.168929 0 0 0 25.168928 25.168929h99.543113v283.77967a24.036327 24.036327 0 0 0 24.036327 24.036327 24.162171 24.162171 0 0 0 24.036327-24.036327V115.905056a62.922322 62.922322 0 0 0-16.737338-45.052383zM383.330158 77.522439a25.168929 25.168929 0 0 0 25.168929 25.168929h145.098873a25.168929 25.168929 0 0 0 25.168929-25.168929 25.168929 25.168929 0 0 0-25.168929-25.168928H408.499087a25.168929 25.168929 0 0 0-25.168929 25.168928z" p-id="2163" fill="#1296db"></path></svg>