<?xml version="1.0" standalone="no"?><!DOCTYPE svg PUBLIC "-//W3C//DTD SVG 1.1//EN" "http://www.w3.org/Graphics/SVG/1.1/DTD/svg11.dtd"><svg t="1572269373703" class="icon" viewBox="0 0 1024 1024" version="1.1" xmlns="http://www.w3.org/2000/svg" p-id="7534" xmlns:xlink="http://www.w3.org/1999/xlink" width="32" height="32"><defs><style type="text/css"></style></defs><path d="M349.364706 252.988235c0-62.644706-38.550588-115.651765-96.376471-134.927059V48.188235c0-28.912941-19.275294-48.188235-48.188235-48.188235-28.912941 0-48.188235 19.275294-48.188235 48.188235v69.872941C98.785882 137.336471 60.235294 190.343529 60.235294 252.988235c0 62.644706 38.550588 115.651765 96.376471 134.927059v207.209412c-57.825882 19.275294-96.376471 72.282353-96.376471 134.927059 0 62.644706 38.550588 115.651765 96.376471 134.927059v74.691764c0 28.912941 19.275294 48.188235 48.188235 48.188236 28.912941 0 48.188235-19.275294 48.188235-48.188236v-69.872941c57.825882-19.275294 96.376471-72.282353 96.376471-134.927059 0-62.644706-38.550588-115.651765-96.376471-134.927059V392.734118c57.825882-24.094118 96.376471-77.101176 96.376471-139.745883zM204.8 783.058824c-28.912941 0-48.188235-19.275294-48.188235-48.188236 0-28.912941 19.275294-48.188235 48.188235-48.188235 28.912941 0 48.188235 19.275294 48.188235 48.188235 0 28.912941-19.275294 48.188235-48.188235 48.188236z m0-481.882353c-28.912941 0-48.188235-19.275294-48.188235-48.188236 0-28.912941 19.275294-48.188235 48.188235-48.188235 28.912941 0 48.188235 19.275294 48.188235 48.188235 0 28.912941-19.275294 48.188235-48.188235 48.188236z m603.919059 481.882353h-330.691765c-20.660706 0-41.321412 19.275294-41.321412 48.188235 0 28.912941 16.564706 48.188235 41.321412 48.188235h330.691765c20.660706 0 41.321412-19.275294 41.321412-48.188235 0-28.912941-16.504471-48.188235-41.321412-48.188235zM891.482353 108.423529H478.027294c-20.660706 0-41.321412 19.275294-41.321412 48.188236 0 28.912941 16.564706 48.188235 41.321412 48.188235H891.482353c20.660706 0 41.321412-19.275294 41.321412-48.188235 0-28.912941-16.564706-48.188235-41.321412-48.188236z m-82.703059 289.129412c20.660706 0 41.321412-19.275294 41.321412-48.188235 0-28.912941-16.504471-48.188235-41.321412-48.188235h-330.691765c-20.660706 0-41.321412 19.275294-41.321411 48.188235 0 28.912941 16.564706 48.188235 41.321411 48.188235h330.691765zM891.482353 590.305882H478.027294c-20.660706 0-41.321412 19.275294-41.321412 48.188236 0 28.912941 16.564706 48.188235 41.321412 48.188235H891.482353c20.660706 0 41.321412-19.275294 41.321412-48.188235 0-28.912941-16.564706-48.188235-41.321412-48.188236z" p-id="7535" fill="#8a8a8a"></path></svg>